<mxfile host="app.diagrams.net" modified="2024-05-28T15:07:07.893Z" agent="Mozilla/5.0 (X11; Ubuntu; Linux x86_64; rv:123.0) Gecko/20100101 Firefox/123.0" etag="JefzZaNkCABkK5-dmtma" version="21.6.5" type="device">
  <diagram name="Page-1" id="VBez1pdnEtBPdH81028Y">
    <mxGraphModel dx="941" dy="548" grid="1" gridSize="10" guides="1" tooltips="1" connect="1" arrows="1" fold="1" page="1" pageScale="1" pageWidth="850" pageHeight="1100" math="0" shadow="0">
      <root>
        <mxCell id="0" />
        <mxCell id="1" parent="0" />
        <mxCell id="Aher2qQTRsYG2Q-Nk30k-18" value="" style="rounded=1;whiteSpace=wrap;html=1;fillColor=#fff2cc;strokeColor=#d6b656;" vertex="1" parent="1">
          <mxGeometry x="160" y="120" width="480" height="240" as="geometry" />
        </mxCell>
        <mxCell id="Aher2qQTRsYG2Q-Nk30k-2" value="&lt;font face=&quot;Times New Roman&quot;&gt;Raspberry Pi Pico/2040&lt;/font&gt;" style="rounded=0;whiteSpace=wrap;html=1;" vertex="1" parent="1">
          <mxGeometry x="200" y="415" width="120" height="60" as="geometry" />
        </mxCell>
        <mxCell id="Aher2qQTRsYG2Q-Nk30k-3" value="" style="endArrow=classic;html=1;rounded=0;exitX=0.5;exitY=0;exitDx=0;exitDy=0;entryX=0.5;entryY=1;entryDx=0;entryDy=0;" edge="1" parent="1" source="Aher2qQTRsYG2Q-Nk30k-2" target="Aher2qQTRsYG2Q-Nk30k-6">
          <mxGeometry width="50" height="50" relative="1" as="geometry">
            <mxPoint x="400" y="440" as="sourcePoint" />
            <mxPoint x="260" y="360" as="targetPoint" />
          </mxGeometry>
        </mxCell>
        <mxCell id="Aher2qQTRsYG2Q-Nk30k-6" value="&lt;font face=&quot;Times New Roman&quot;&gt;Publisher&lt;/font&gt;" style="rounded=0;whiteSpace=wrap;html=1;" vertex="1" parent="1">
          <mxGeometry x="200" y="186" width="120" height="60" as="geometry" />
        </mxCell>
        <mxCell id="Aher2qQTRsYG2Q-Nk30k-7" value="&lt;font face=&quot;Times New Roman&quot;&gt;Subscriber&lt;/font&gt;" style="rounded=0;whiteSpace=wrap;html=1;" vertex="1" parent="1">
          <mxGeometry x="400" y="186" width="120" height="60" as="geometry" />
        </mxCell>
        <mxCell id="Aher2qQTRsYG2Q-Nk30k-8" value="&lt;font face=&quot;Times New Roman&quot;&gt;Bash script&lt;/font&gt;" style="rounded=0;whiteSpace=wrap;html=1;" vertex="1" parent="1">
          <mxGeometry x="400" y="280" width="120" height="60" as="geometry" />
        </mxCell>
        <mxCell id="Aher2qQTRsYG2Q-Nk30k-11" value="" style="endArrow=classic;html=1;rounded=0;exitX=1;exitY=0.5;exitDx=0;exitDy=0;entryX=0;entryY=0.5;entryDx=0;entryDy=0;" edge="1" parent="1" source="Aher2qQTRsYG2Q-Nk30k-6" target="Aher2qQTRsYG2Q-Nk30k-7">
          <mxGeometry width="50" height="50" relative="1" as="geometry">
            <mxPoint x="350" y="440" as="sourcePoint" />
            <mxPoint x="400" y="390" as="targetPoint" />
          </mxGeometry>
        </mxCell>
        <mxCell id="Aher2qQTRsYG2Q-Nk30k-13" value="&lt;font face=&quot;Times New Roman&quot; style=&quot;font-size: 15px;&quot;&gt;MQTT&lt;/font&gt;" style="text;html=1;strokeColor=none;fillColor=none;align=center;verticalAlign=middle;whiteSpace=wrap;rounded=0;" vertex="1" parent="1">
          <mxGeometry x="330" y="190" width="60" height="30" as="geometry" />
        </mxCell>
        <mxCell id="Aher2qQTRsYG2Q-Nk30k-16" value="&lt;font style=&quot;font-size: 15px;&quot; face=&quot;Times New Roman&quot;&gt;Serial&lt;/font&gt;" style="text;html=1;strokeColor=none;fillColor=none;align=center;verticalAlign=middle;whiteSpace=wrap;rounded=0;" vertex="1" parent="1">
          <mxGeometry x="200" y="372" width="60" height="30" as="geometry" />
        </mxCell>
        <mxCell id="Aher2qQTRsYG2Q-Nk30k-20" value="&lt;font style=&quot;font-size: 25px;&quot; face=&quot;Times New Roman&quot;&gt;Raspberry Pi&lt;br&gt;&lt;/font&gt;" style="text;html=1;strokeColor=none;fillColor=none;align=center;verticalAlign=middle;whiteSpace=wrap;rounded=0;" vertex="1" parent="1">
          <mxGeometry x="187" y="132" width="155" height="30" as="geometry" />
        </mxCell>
        <mxCell id="Aher2qQTRsYG2Q-Nk30k-22" value="" style="endArrow=classic;html=1;rounded=0;exitX=0.5;exitY=1;exitDx=0;exitDy=0;entryX=0.5;entryY=0;entryDx=0;entryDy=0;" edge="1" parent="1" source="Aher2qQTRsYG2Q-Nk30k-7" target="Aher2qQTRsYG2Q-Nk30k-8">
          <mxGeometry width="50" height="50" relative="1" as="geometry">
            <mxPoint x="360" y="350" as="sourcePoint" />
            <mxPoint x="410" y="300" as="targetPoint" />
          </mxGeometry>
        </mxCell>
        <mxCell id="Aher2qQTRsYG2Q-Nk30k-23" value="" style="endArrow=classic;html=1;rounded=0;exitX=0.5;exitY=1;exitDx=0;exitDy=0;entryX=1;entryY=0.5;entryDx=0;entryDy=0;" edge="1" parent="1" source="Aher2qQTRsYG2Q-Nk30k-8" target="Aher2qQTRsYG2Q-Nk30k-2">
          <mxGeometry width="50" height="50" relative="1" as="geometry">
            <mxPoint x="360" y="350" as="sourcePoint" />
            <mxPoint x="410" y="300" as="targetPoint" />
            <Array as="points">
              <mxPoint x="460" y="445" />
            </Array>
          </mxGeometry>
        </mxCell>
        <mxCell id="Aher2qQTRsYG2Q-Nk30k-24" value="&lt;font face=&quot;Times New Roman&quot; style=&quot;font-size: 15px;&quot;&gt;Serial&lt;/font&gt;" style="text;whiteSpace=wrap;html=1;" vertex="1" parent="1">
          <mxGeometry x="410" y="372" width="70" height="40" as="geometry" />
        </mxCell>
      </root>
    </mxGraphModel>
  </diagram>
</mxfile>
